<svg xmlns="http://www.w3.org/2000/svg" viewBox="0 0 654 980" width="654" height="980" font-family="Inter, -apple-system, BlinkMacSystemFont, sans-serif" text-rendering="optimizeLegibility">
  <rect width="654" height="980" fill="#ffffff"/>

  <g id="title">
    <text x="28" y="48" font-size="22" font-weight="600" fill="#020202" letter-spacing="-0.3">Use case breadth — teams using only one orchestration tool</text>
  </g>

  <!-- Each cohort: 210 px block tall (header + 5 rows + footer) -->

  <g id="cohort-inngest" transform="translate(28,80)">
    <g id="cohort-header">
      <text x="0" y="16" font-size="16" font-weight="600" fill="#2C9B63">Inngest</text>
      <text x="598" y="16" font-size="13" font-family="'JetBrains Mono', ui-monospace, monospace" text-anchor="end" fill="#242424" font-variant-numeric="tabular-nums">avg 75%</text>
      <text x="598" y="32" font-size="11" font-family="'JetBrains Mono', ui-monospace, monospace" text-anchor="end" fill="#7C7C7C" font-variant-numeric="tabular-nums">n=29</text>
      <line x1="0" y1="42" x2="598" y2="42" stroke="#2C9B63" stroke-width="1"/>
    </g>

    <g transform="translate(0,52)">
      <g transform="translate(0,0)">
        <text x="0" y="16" font-size="12" fill="#242424">Background jobs</text>
        <rect x="160" y="4" width="400" height="18" fill="#F6F6F6"/>
        <rect x="160" y="4" width="388" height="18" fill="#FF7300"/>
        <text x="598" y="18" font-size="12" font-family="'JetBrains Mono', ui-monospace, monospace" text-anchor="end" fill="#FF7300" font-variant-numeric="tabular-nums">97%</text>
      </g>
      <g transform="translate(0,26)">
        <text x="0" y="16" font-size="12" fill="#242424">Event-driven</text>
        <rect x="160" y="4" width="400" height="18" fill="#F6F6F6"/>
        <rect x="160" y="4" width="332" height="18" fill="#2389F1"/>
        <text x="598" y="18" font-size="12" font-family="'JetBrains Mono', ui-monospace, monospace" text-anchor="end" fill="#2389F1" font-variant-numeric="tabular-nums">83%</text>
      </g>
      <g transform="translate(0,52)">
        <text x="0" y="16" font-size="12" fill="#242424">Long-running</text>
        <rect x="160" y="4" width="400" height="18" fill="#F6F6F6"/>
        <rect x="160" y="4" width="276" height="18" fill="#2C9B63"/>
        <text x="598" y="18" font-size="12" font-family="'JetBrains Mono', ui-monospace, monospace" text-anchor="end" fill="#2C9B63" font-variant-numeric="tabular-nums">69%</text>
      </g>
      <g transform="translate(0,78)">
        <text x="0" y="16" font-size="12" fill="#242424">Data pipelines</text>
        <rect x="160" y="4" width="400" height="18" fill="#F6F6F6"/>
        <rect x="160" y="4" width="208" height="18" fill="#FCC43F"/>
        <text x="598" y="18" font-size="12" font-family="'JetBrains Mono', ui-monospace, monospace" text-anchor="end" fill="#B58700" font-variant-numeric="tabular-nums">52%</text>
      </g>
      <g transform="translate(0,104)">
        <text x="0" y="16" font-size="12" fill="#242424">AI workflows</text>
        <rect x="160" y="4" width="400" height="18" fill="#F6F6F6"/>
        <rect x="160" y="4" width="288" height="18" fill="#8F75B7"/>
        <text x="598" y="18" font-size="12" font-family="'JetBrains Mono', ui-monospace, monospace" text-anchor="end" fill="#8F75B7" font-variant-numeric="tabular-nums">72%</text>
      </g>
    </g>
  </g>

  <g id="cohort-custom" transform="translate(28,280)">
    <g id="cohort-header">
      <text x="0" y="16" font-size="16" font-weight="600" fill="#7C7C7C">Custom-built</text>
      <text x="598" y="16" font-size="13" font-family="'JetBrains Mono', ui-monospace, monospace" text-anchor="end" fill="#242424" font-variant-numeric="tabular-nums">avg 73%</text>
      <text x="598" y="32" font-size="11" font-family="'JetBrains Mono', ui-monospace, monospace" text-anchor="end" fill="#7C7C7C" font-variant-numeric="tabular-nums">n=15</text>
      <line x1="0" y1="42" x2="598" y2="42" stroke="#7C7C7C" stroke-width="1"/>
    </g>
    <g transform="translate(0,52)">
      <g transform="translate(0,0)"><text x="0" y="16" font-size="12" fill="#242424">Background jobs</text><rect x="160" y="4" width="400" height="18" fill="#F6F6F6"/><rect x="160" y="4" width="372" height="18" fill="#FF7300"/><text x="598" y="18" font-size="12" font-family="'JetBrains Mono', ui-monospace, monospace" text-anchor="end" fill="#FF7300" font-variant-numeric="tabular-nums">93%</text></g>
      <g transform="translate(0,26)"><text x="0" y="16" font-size="12" fill="#242424">Event-driven</text><rect x="160" y="4" width="400" height="18" fill="#F6F6F6"/><rect x="160" y="4" width="348" height="18" fill="#2389F1"/><text x="598" y="18" font-size="12" font-family="'JetBrains Mono', ui-monospace, monospace" text-anchor="end" fill="#2389F1" font-variant-numeric="tabular-nums">87%</text></g>
      <g transform="translate(0,52)"><text x="0" y="16" font-size="12" fill="#242424">Long-running</text><rect x="160" y="4" width="400" height="18" fill="#F6F6F6"/><rect x="160" y="4" width="268" height="18" fill="#2C9B63"/><text x="598" y="18" font-size="12" font-family="'JetBrains Mono', ui-monospace, monospace" text-anchor="end" fill="#2C9B63" font-variant-numeric="tabular-nums">67%</text></g>
      <g transform="translate(0,78)"><text x="0" y="16" font-size="12" fill="#242424">Data pipelines</text><rect x="160" y="4" width="400" height="18" fill="#F6F6F6"/><rect x="160" y="4" width="268" height="18" fill="#FCC43F"/><text x="598" y="18" font-size="12" font-family="'JetBrains Mono', ui-monospace, monospace" text-anchor="end" fill="#B58700" font-variant-numeric="tabular-nums">67%</text></g>
      <g transform="translate(0,104)"><text x="0" y="16" font-size="12" fill="#242424">AI workflows</text><rect x="160" y="4" width="400" height="18" fill="#F6F6F6"/><rect x="160" y="4" width="212" height="18" fill="#8F75B7"/><text x="598" y="18" font-size="12" font-family="'JetBrains Mono', ui-monospace, monospace" text-anchor="end" fill="#8F75B7" font-variant-numeric="tabular-nums">53%</text></g>
    </g>
  </g>

  <g id="cohort-aws" transform="translate(28,480)">
    <g id="cohort-header">
      <text x="0" y="16" font-size="16" font-weight="600" fill="#2389F1">AWS / Vercel / CF <tspan font-size="11" font-family="'JetBrains Mono', ui-monospace, monospace" fill="#7C7C7C"> (directional)</tspan></text>
      <text x="598" y="16" font-size="13" font-family="'JetBrains Mono', ui-monospace, monospace" text-anchor="end" fill="#242424" font-variant-numeric="tabular-nums">avg 63%</text>
      <text x="598" y="32" font-size="11" font-family="'JetBrains Mono', ui-monospace, monospace" text-anchor="end" fill="#7C7C7C" font-variant-numeric="tabular-nums">n=7</text>
      <line x1="0" y1="42" x2="598" y2="42" stroke="#2389F1" stroke-width="1"/>
    </g>
    <g transform="translate(0,52)">
      <g transform="translate(0,0)"><text x="0" y="16" font-size="12" fill="#242424">Background jobs</text><rect x="160" y="4" width="400" height="18" fill="#F6F6F6"/><rect x="160" y="4" width="344" height="18" fill="#FF7300"/><text x="598" y="18" font-size="12" font-family="'JetBrains Mono', ui-monospace, monospace" text-anchor="end" fill="#FF7300" font-variant-numeric="tabular-nums">86%</text></g>
      <g transform="translate(0,26)"><text x="0" y="16" font-size="12" fill="#242424">Event-driven</text><rect x="160" y="4" width="400" height="18" fill="#F6F6F6"/><rect x="160" y="4" width="344" height="18" fill="#2389F1"/><text x="598" y="18" font-size="12" font-family="'JetBrains Mono', ui-monospace, monospace" text-anchor="end" fill="#2389F1" font-variant-numeric="tabular-nums">86%</text></g>
      <g transform="translate(0,52)"><text x="0" y="16" font-size="12" fill="#242424">Long-running</text><rect x="160" y="4" width="400" height="18" fill="#F6F6F6"/><rect x="160" y="4" width="172" height="18" fill="#2C9B63"/><text x="598" y="18" font-size="12" font-family="'JetBrains Mono', ui-monospace, monospace" text-anchor="end" fill="#2C9B63" font-variant-numeric="tabular-nums">43%</text></g>
      <g transform="translate(0,78)"><text x="0" y="16" font-size="12" fill="#242424">Data pipelines</text><rect x="160" y="4" width="400" height="18" fill="#F6F6F6"/><rect x="160" y="4" width="284" height="18" fill="#FCC43F"/><text x="598" y="18" font-size="12" font-family="'JetBrains Mono', ui-monospace, monospace" text-anchor="end" fill="#B58700" font-variant-numeric="tabular-nums">71%</text></g>
      <g transform="translate(0,104)"><text x="0" y="16" font-size="12" fill="#242424">AI workflows</text><rect x="160" y="4" width="400" height="18" fill="#F6F6F6"/><rect x="160" y="4" width="116" height="18" fill="#8F75B7"/><text x="598" y="18" font-size="12" font-family="'JetBrains Mono', ui-monospace, monospace" text-anchor="end" fill="#8F75B7" font-variant-numeric="tabular-nums">29%</text></g>
    </g>
  </g>

  <g id="cohort-bullmq" transform="translate(28,680)">
    <g id="cohort-header">
      <text x="0" y="16" font-size="16" font-weight="600" fill="#D56B13">BullMQ / Cel / Sid <tspan font-size="11" font-family="'JetBrains Mono', ui-monospace, monospace" fill="#7C7C7C"> (directional)</tspan></text>
      <text x="598" y="16" font-size="13" font-family="'JetBrains Mono', ui-monospace, monospace" text-anchor="end" fill="#242424" font-variant-numeric="tabular-nums">avg 57%</text>
      <text x="598" y="32" font-size="11" font-family="'JetBrains Mono', ui-monospace, monospace" text-anchor="end" fill="#7C7C7C" font-variant-numeric="tabular-nums">n=6</text>
      <line x1="0" y1="42" x2="598" y2="42" stroke="#D56B13" stroke-width="1"/>
    </g>
    <g transform="translate(0,52)">
      <g transform="translate(0,0)"><text x="0" y="16" font-size="12" fill="#242424">Background jobs</text><rect x="160" y="4" width="400" height="18" fill="#F6F6F6"/><rect x="160" y="4" width="332" height="18" fill="#FF7300"/><text x="598" y="18" font-size="12" font-family="'JetBrains Mono', ui-monospace, monospace" text-anchor="end" fill="#FF7300" font-variant-numeric="tabular-nums">83%</text></g>
      <g transform="translate(0,26)"><text x="0" y="16" font-size="12" fill="#242424">Event-driven</text><rect x="160" y="4" width="400" height="18" fill="#F6F6F6"/><rect x="160" y="4" width="268" height="18" fill="#2389F1"/><text x="598" y="18" font-size="12" font-family="'JetBrains Mono', ui-monospace, monospace" text-anchor="end" fill="#2389F1" font-variant-numeric="tabular-nums">67%</text></g>
      <g transform="translate(0,52)"><text x="0" y="16" font-size="12" fill="#242424">Long-running</text><rect x="160" y="4" width="400" height="18" fill="#F6F6F6"/><rect x="160" y="4" width="200" height="18" fill="#2C9B63"/><text x="598" y="18" font-size="12" font-family="'JetBrains Mono', ui-monospace, monospace" text-anchor="end" fill="#2C9B63" font-variant-numeric="tabular-nums">50%</text></g>
      <g transform="translate(0,78)"><text x="0" y="16" font-size="12" fill="#242424">Data pipelines</text><rect x="160" y="4" width="400" height="18" fill="#F6F6F6"/><rect x="160" y="4" width="68" height="18" fill="#FCC43F"/><text x="598" y="18" font-size="12" font-family="'JetBrains Mono', ui-monospace, monospace" text-anchor="end" fill="#B58700" font-variant-numeric="tabular-nums">17%</text></g>
      <g transform="translate(0,104)"><text x="0" y="16" font-size="12" fill="#242424">AI workflows</text><rect x="160" y="4" width="400" height="18" fill="#F6F6F6"/><rect x="160" y="4" width="268" height="18" fill="#8F75B7"/><text x="598" y="18" font-size="12" font-family="'JetBrains Mono', ui-monospace, monospace" text-anchor="end" fill="#8F75B7" font-variant-numeric="tabular-nums">67%</text></g>
    </g>
  </g>

  <g id="source" transform="translate(28,900)">
    <text font-size="10" font-family="'JetBrains Mono', ui-monospace, monospace" fill="#636363">
      <tspan x="0" dy="0">Q2 × Q3 × Q11. Solo users of each tool only. % running each workflow type. Sorted by average</tspan>
      <tspan x="0" dy="14">across all five use cases. Temporal solo (n=3) and Prefect/Airflow solo (n=2) excluded.</tspan>
      <tspan x="0" dy="14">AWS/Vercel/CF drops sharply on long-running (43%) and AI (29%); BullMQ on data pipelines (17%).</tspan>
    </text>
  </g>
</svg>
