<svg xmlns="http://www.w3.org/2000/svg" viewBox="0 0 1117 1440" width="1117" height="1440" font-family="Inter, -apple-system, BlinkMacSystemFont, sans-serif" text-rendering="optimizeLegibility">
  <rect width="1117" height="1440" fill="#212121"/>

  <!-- Title -->
  <text x="48" y="104" font-size="46" font-weight="700" fill="#FFFFFF" letter-spacing="-0.8">What's wrong with current eval solutions</text>
  <text x="48" y="162" font-size="46" font-weight="700" fill="#FFFFFF" letter-spacing="-0.8">— by tool</text>

  <!--
    Layout:
    Padding-left: 48. Label col: 240.  Data area starts x=288. Col width: 130 (126 + 4 gap).
    Header area: y=224 to 400 (176 tall for wrapped 2-line headers).
    First data row: y=412. Row height: 150. 6 rows → ends y=1312.
    Legend: y=1352. Source: y=1400.
  -->

  <!-- Column headers -->
  <g id="headers" transform="translate(288,224)">
    <g font-size="20" font-weight="500" fill="#FFFFFF" text-anchor="middle">
      <g transform="translate(63,0)">
        <text y="30">Hard-to-write</text>
        <text y="58">evals</text>
      </g>
      <g transform="translate(193,0)">
        <text y="30">LLM-as-judge</text>
        <text y="58">cost</text>
      </g>
      <g transform="translate(323,0)">
        <text y="30">Results in</text>
        <text y="58">separate system</text>
      </g>
      <g transform="translate(453,0)">
        <text y="30">Not enough</text>
        <text y="58">coverage</text>
      </g>
      <g transform="translate(583,0)">
        <text y="30">No way to act</text>
        <text y="58">on failure</text>
      </g>
      <g transform="translate(713,0)">
        <text y="30">Offline</text>
        <text y="58">only</text>
      </g>
    </g>
  </g>

  <!-- Horizontal rule under headers -->
  <line x1="288" y1="400" x2="1062" y2="400" stroke="#3A3A3A" stroke-width="1"/>

  <!-- ============================================================
       Rows.  Row label (x=48).  Data cells (start x=288).
       Cell width 126, gap 4. Cell height 142, gap 8.
       ============================================================ -->

  <!-- Row 1: Built own pipeline  [47, 35, 30, 21, 26, 19]  (n=43) -->
  <g id="row-own" transform="translate(0,412)">
    <text x="48" y="84" font-size="28" font-weight="600" fill="#FFFFFF">Built own pipeline</text>
    <text x="48" y="116" font-size="16" font-family="'JetBrains Mono', ui-monospace, monospace" fill="#9B9B9B">n=43</text>
    <g transform="translate(288,0)">
      <rect x="0"   y="0" width="126" height="142" fill="#B5731E"/>
      <rect x="130" y="0" width="126" height="142" fill="#B5731E"/>
      <rect x="260" y="0" width="126" height="142" fill="#B5731E"/>
      <rect x="390" y="0" width="126" height="142" fill="#3A3A3A"/>
      <rect x="520" y="0" width="126" height="142" fill="#3A3A3A"/>
      <rect x="650" y="0" width="126" height="142" fill="#3A3A3A"/>
      <g font-size="34" font-family="'JetBrains Mono', ui-monospace, monospace" font-variant-numeric="tabular-nums" text-anchor="middle" fill="#FFFFFF">
        <text x="63"  y="84">47%</text>
        <text x="193" y="84">35%</text>
        <text x="323" y="84">30%</text>
        <text x="453" y="84">21%</text>
        <text x="583" y="84">26%</text>
        <text x="713" y="84">19%</text>
      </g>
    </g>
  </g>

  <!-- Row 2: LangFuse  [64, 55, 45, 55, 27, 18]  (n=11) -->
  <g id="row-langfuse" transform="translate(0,562)">
    <text x="48" y="84" font-size="28" font-weight="600" fill="#FFFFFF">LangFuse</text>
    <text x="48" y="116" font-size="16" font-family="'JetBrains Mono', ui-monospace, monospace" fill="#9B9B9B">n=11</text>
    <g transform="translate(288,0)">
      <rect x="0"   y="0" width="126" height="142" fill="#FCC43F"/>
      <rect x="130" y="0" width="126" height="142" fill="#FCC43F"/>
      <rect x="260" y="0" width="126" height="142" fill="#B5731E"/>
      <rect x="390" y="0" width="126" height="142" fill="#FCC43F"/>
      <rect x="520" y="0" width="126" height="142" fill="#3A3A3A"/>
      <rect x="650" y="0" width="126" height="142" fill="#3A3A3A"/>
      <g font-size="34" font-family="'JetBrains Mono', ui-monospace, monospace" font-variant-numeric="tabular-nums" text-anchor="middle">
        <text x="63"  y="84" fill="#212121">64%</text>
        <text x="193" y="84" fill="#212121">55%</text>
        <text x="323" y="84" fill="#FFFFFF">45%</text>
        <text x="453" y="84" fill="#212121">55%</text>
        <text x="583" y="84" fill="#FFFFFF">27%</text>
        <text x="713" y="84" fill="#FFFFFF">18%</text>
      </g>
    </g>
  </g>

  <!-- Row 3: LangSmith  [78, 44, 56, 0, 11, 56]  (n=9) -->
  <g id="row-langsmith" transform="translate(0,712)">
    <text x="48" y="84" font-size="28" font-weight="600" fill="#FFFFFF">LangSmith</text>
    <text x="48" y="116" font-size="16" font-family="'JetBrains Mono', ui-monospace, monospace" fill="#9B9B9B">n=9</text>
    <g transform="translate(288,0)">
      <rect x="0"   y="0" width="126" height="142" fill="#FCC43F"/>
      <rect x="130" y="0" width="126" height="142" fill="#B5731E"/>
      <rect x="260" y="0" width="126" height="142" fill="#FCC43F"/>
      <rect x="390" y="0" width="126" height="142" fill="#2A2A2A"/>
      <rect x="520" y="0" width="126" height="142" fill="#3A3A3A"/>
      <rect x="650" y="0" width="126" height="142" fill="#FCC43F"/>
      <g font-size="34" font-family="'JetBrains Mono', ui-monospace, monospace" font-variant-numeric="tabular-nums" text-anchor="middle">
        <text x="63"  y="84" fill="#212121">78%</text>
        <text x="193" y="84" fill="#FFFFFF">44%</text>
        <text x="323" y="84" fill="#212121">56%</text>
        <text x="453" y="84" fill="#666666">0%</text>
        <text x="583" y="84" fill="#FFFFFF">11%</text>
        <text x="713" y="84" fill="#212121">56%</text>
      </g>
    </g>
  </g>

  <!-- Row 4: Braintrust  [50, 25, 38, 25, 0, 25]  (n=8) -->
  <g id="row-braintrust" transform="translate(0,862)">
    <text x="48" y="84" font-size="28" font-weight="600" fill="#FFFFFF">Braintrust</text>
    <text x="48" y="116" font-size="16" font-family="'JetBrains Mono', ui-monospace, monospace" fill="#9B9B9B">n=8</text>
    <g transform="translate(288,0)">
      <rect x="0"   y="0" width="126" height="142" fill="#FCC43F"/>
      <rect x="130" y="0" width="126" height="142" fill="#3A3A3A"/>
      <rect x="260" y="0" width="126" height="142" fill="#B5731E"/>
      <rect x="390" y="0" width="126" height="142" fill="#3A3A3A"/>
      <rect x="520" y="0" width="126" height="142" fill="#2A2A2A"/>
      <rect x="650" y="0" width="126" height="142" fill="#3A3A3A"/>
      <g font-size="34" font-family="'JetBrains Mono', ui-monospace, monospace" font-variant-numeric="tabular-nums" text-anchor="middle">
        <text x="63"  y="84" fill="#212121">50%</text>
        <text x="193" y="84" fill="#FFFFFF">25%</text>
        <text x="323" y="84" fill="#FFFFFF">38%</text>
        <text x="453" y="84" fill="#FFFFFF">25%</text>
        <text x="583" y="84" fill="#666666">0%</text>
        <text x="713" y="84" fill="#FFFFFF">25%</text>
      </g>
    </g>
  </g>

  <!-- Row 5: Arize / Phoenix  [80, 20, 60, 40, 0, 20]  (n=5) -->
  <g id="row-arize" transform="translate(0,1012)">
    <text x="48" y="84" font-size="28" font-weight="600" fill="#FFFFFF">Arize / Phoenix</text>
    <text x="48" y="116" font-size="16" font-family="'JetBrains Mono', ui-monospace, monospace" fill="#9B9B9B">n=5</text>
    <g transform="translate(288,0)">
      <rect x="0"   y="0" width="126" height="142" fill="#FCC43F"/>
      <rect x="130" y="0" width="126" height="142" fill="#3A3A3A"/>
      <rect x="260" y="0" width="126" height="142" fill="#FCC43F"/>
      <rect x="390" y="0" width="126" height="142" fill="#B5731E"/>
      <rect x="520" y="0" width="126" height="142" fill="#2A2A2A"/>
      <rect x="650" y="0" width="126" height="142" fill="#3A3A3A"/>
      <g font-size="34" font-family="'JetBrains Mono', ui-monospace, monospace" font-variant-numeric="tabular-nums" text-anchor="middle">
        <text x="63"  y="84" fill="#212121">80%</text>
        <text x="193" y="84" fill="#FFFFFF">20%</text>
        <text x="323" y="84" fill="#212121">60%</text>
        <text x="453" y="84" fill="#FFFFFF">40%</text>
        <text x="583" y="84" fill="#666666">0%</text>
        <text x="713" y="84" fill="#FFFFFF">20%</text>
      </g>
    </g>
  </g>

  <!-- Row 6: Not doing evals  [35, 42, 29, 3, 13, 6]  (n=31) — muted -->
  <g id="row-none" transform="translate(0,1162)" opacity="0.55">
    <text x="48" y="84" font-size="28" font-weight="600" fill="#FFFFFF">Not doing evals</text>
    <text x="48" y="116" font-size="16" font-family="'JetBrains Mono', ui-monospace, monospace" fill="#9B9B9B">n=31</text>
    <g transform="translate(288,0)">
      <rect x="0"   y="0" width="126" height="142" fill="#B5731E"/>
      <rect x="130" y="0" width="126" height="142" fill="#B5731E"/>
      <rect x="260" y="0" width="126" height="142" fill="#3A3A3A"/>
      <rect x="390" y="0" width="126" height="142" fill="#2A2A2A"/>
      <rect x="520" y="0" width="126" height="142" fill="#3A3A3A"/>
      <rect x="650" y="0" width="126" height="142" fill="#2A2A2A"/>
      <g font-size="34" font-family="'JetBrains Mono', ui-monospace, monospace" font-variant-numeric="tabular-nums" text-anchor="middle">
        <text x="63"  y="84" fill="#FFFFFF">35%</text>
        <text x="193" y="84" fill="#FFFFFF">42%</text>
        <text x="323" y="84" fill="#FFFFFF">29%</text>
        <text x="453" y="84" fill="#666666">3%</text>
        <text x="583" y="84" fill="#FFFFFF">13%</text>
        <text x="713" y="84" fill="#666666">6%</text>
      </g>
    </g>
  </g>

  <!-- Legend -->
  <g id="legend" transform="translate(48,1348)">
    <g transform="translate(0,0)">
      <rect width="22" height="22" fill="#FCC43F"/>
      <text x="32" y="18" font-size="18" font-family="'JetBrains Mono', ui-monospace, monospace" fill="#FFFFFF">50%+</text>
    </g>
    <g transform="translate(140,0)">
      <rect width="22" height="22" fill="#B5731E"/>
      <text x="32" y="18" font-size="18" font-family="'JetBrains Mono', ui-monospace, monospace" fill="#FFFFFF">30–49%</text>
    </g>
    <g transform="translate(300,0)">
      <rect width="22" height="22" fill="#3A3A3A"/>
      <text x="32" y="18" font-size="18" font-family="'JetBrains Mono', ui-monospace, monospace" fill="#FFFFFF">&lt;30%</text>
    </g>
  </g>

  <!-- Source -->
  <g id="source" transform="translate(48,1408)">
    <text font-size="16" font-family="'JetBrains Mono', ui-monospace, monospace" fill="#808080">
      <tspan x="0" dy="0">Q15: % of each tool's users citing each limitation. Tools with n&lt;3 (W&amp;B, Helicone) excluded.</tspan>
    </text>
  </g>
</svg>
