<svg xmlns="http://www.w3.org/2000/svg" viewBox="0 0 618 720" width="618" height="720" font-family="Inter, -apple-system, BlinkMacSystemFont, sans-serif" text-rendering="optimizeLegibility">
  <rect width="618" height="720" fill="#212121"/>

  <!-- Title -->
  <text x="28" y="50" font-size="26" font-weight="700" fill="#FFFFFF" letter-spacing="-0.4">Agent framework adoption by team size</text>

  <!-- Legend -->
  <g id="legend" transform="translate(28,88)">
    <g transform="translate(0,0)">
      <rect width="12" height="12" fill="#FCC43F"/>
      <text x="18" y="10" font-size="12" fill="#FFFFFF">Direct API / DIY</text>
    </g>
    <g transform="translate(124,0)">
      <rect width="12" height="12" fill="#E89B30"/>
      <text x="18" y="10" font-size="12" fill="#FFFFFF">Vercel AI SDK</text>
    </g>
    <g transform="translate(230,0)">
      <rect width="12" height="12" fill="#C07218"/>
      <text x="18" y="10" font-size="12" fill="#FFFFFF">LangChain / LGraph</text>
    </g>
    <g transform="translate(362,0)">
      <rect width="12" height="12" fill="#8A4D12"/>
      <text x="18" y="10" font-size="12" fill="#FFFFFF">LlamaIndex</text>
    </g>
    <g transform="translate(460,0)">
      <rect width="12" height="12" fill="#5C3A0F"/>
      <text x="18" y="10" font-size="12" fill="#FFFFFF">Mastra</text>
    </g>
  </g>

  <!--
    Plot: x-axis domain 0..80%. Height = 430px. Scale: 5.375 px/pp.
    Inner: 28..590. Y-axis labels at x=28..60. Plot area x=68..586.
    Plot y: 150..580.
    4 cohort clusters, each 128 wide. 5 bars of 20px each with 1px gap inside.
  -->

  <!-- Gridlines + y-axis labels -->
  <g id="grid" transform="translate(68,150)">
    <g stroke="#3A3A3A" stroke-dasharray="2 4" stroke-width="1">
      <line x1="0" y1="430" x2="512" y2="430"/>
      <line x1="0" y1="322.5" x2="512" y2="322.5"/>
      <line x1="0" y1="215" x2="512" y2="215"/>
      <line x1="0" y1="107.5" x2="512" y2="107.5"/>
      <line x1="0" y1="0" x2="512" y2="0"/>
    </g>
    <g font-size="11" font-family="'JetBrains Mono', ui-monospace, monospace" fill="#9B9B9B" text-anchor="end">
      <text x="-8" y="433">0%</text>
      <text x="-8" y="325">20%</text>
      <text x="-8" y="218">40%</text>
      <text x="-8" y="110">60%</text>
      <text x="-8" y="3">80%</text>
    </g>
  </g>

  <!-- Cohort 1: Solo/2–10  [77, 34, 6, 3, 6] -->
  <g id="cohort-solo" transform="translate(68,150)">
    <g transform="translate(12,0)">
      <rect x="0"  y="16.1" width="20" height="413.9" fill="#FCC43F"/>
      <rect x="21" y="247.25" width="20" height="182.75" fill="#E89B30"/>
      <rect x="42" y="397.75" width="20" height="32.25" fill="#C07218"/>
      <rect x="63" y="413.9" width="20" height="16.1" fill="#8A4D12"/>
      <rect x="84" y="397.75" width="20" height="32.25" fill="#5C3A0F"/>
    </g>
  </g>

  <!-- Cohort 2: 11–50  [59, 33, 22, 11, 7] -->
  <g id="cohort-11-50" transform="translate(196,150)">
    <g transform="translate(12,0)">
      <rect x="0"  y="112.9" width="20" height="317.1" fill="#FCC43F"/>
      <rect x="21" y="252.625" width="20" height="177.375" fill="#E89B30"/>
      <rect x="42" y="311.75" width="20" height="118.25" fill="#C07218"/>
      <rect x="63" y="370.875" width="20" height="59.125" fill="#8A4D12"/>
      <rect x="84" y="392.375" width="20" height="37.625" fill="#5C3A0F"/>
    </g>
  </g>

  <!-- Cohort 3: 51–500  [67, 20, 33, 13, 7] -->
  <g id="cohort-51-500" transform="translate(324,150)">
    <g transform="translate(12,0)">
      <rect x="0"  y="69.875" width="20" height="360.125" fill="#FCC43F"/>
      <rect x="21" y="322.5" width="20" height="107.5" fill="#E89B30"/>
      <rect x="42" y="252.625" width="20" height="177.375" fill="#C07218"/>
      <rect x="63" y="360.125" width="20" height="69.875" fill="#8A4D12"/>
      <rect x="84" y="392.375" width="20" height="37.625" fill="#5C3A0F"/>
    </g>
  </g>

  <!-- Cohort 4: 500+  [73, 18, 45, 9, 9] -->
  <g id="cohort-500plus" transform="translate(452,150)">
    <g transform="translate(12,0)">
      <rect x="0"  y="37.625" width="20" height="392.375" fill="#FCC43F"/>
      <rect x="21" y="333.25" width="20" height="96.75" fill="#E89B30"/>
      <rect x="42" y="188.125" width="20" height="241.875" fill="#C07218"/>
      <rect x="63" y="381.625" width="20" height="48.375" fill="#8A4D12"/>
      <rect x="84" y="381.625" width="20" height="48.375" fill="#5C3A0F"/>
    </g>
  </g>

  <!-- Cohort axis labels -->
  <g id="cohort-labels" transform="translate(68,600)">
    <g font-size="14" font-weight="500" fill="#FFFFFF" text-anchor="middle">
      <text x="64" y="0">Solo / 2–10</text>
      <text x="192" y="0">11–50</text>
      <text x="320" y="0">51–500</text>
      <text x="448" y="0">500+</text>
    </g>
    <g font-size="11" font-family="'JetBrains Mono', ui-monospace, monospace" fill="#9B9B9B" text-anchor="middle">
      <text x="64" y="20">n=35</text>
      <text x="192" y="20">n=27</text>
      <text x="320" y="20">n=15</text>
      <text x="448" y="20">n=11</text>
    </g>
  </g>

  <!-- Source -->
  <g id="source" transform="translate(28,672)">
    <text font-size="11" font-family="'JetBrains Mono', ui-monospace, monospace" fill="#808080">
      <tspan x="0" dy="0">Q16: AI teams only. % of each size band. Multi-select — totals exceed 100%.</tspan>
    </text>
  </g>
</svg>
